/* XPM */
static const char * icon_xpm[] = {
"134 70 2 1",
" 	c #000000",
".	c #B8F0FF",
"                                                                                                                                      ",
"                                                                                                                                      ",
"                                                                                                                                      ",
"   ................................................................                                                                   ",
"   .                                                              .                                                                   ",
"   . .   .        ..    .      .    ....              ..          .  ..... .     .            ..         .     .....  ...             ",
"   . .. ..         .    .          .                   .          .  .     .     .           .  .        .     .     .   .            ",
"   . . . . .   .   .   ...    ..   .      ...   ...    .    ...   .  .     . ..  . ..        . .         .     .     .   .            ",
"   . . . . .   .   .    .      .    ...  .         .   .   .   .  .  ....  ..  . ..  .        .          .     ....  .   .            ",
"   . .   . .   .   .    .      .       . .      ....   .   .....  .  .     .   . .   .       . . .       .     .     .   .            ",
"   . .   . .  ..   .    .  .   .       . .   . .   .   .   .      .  .     .   . .   .       .  .        .     .     .   .            ",
"   . .   .  .. .  ...    ..   ...  ....   ...   ....  ...   ...   .  ..... ....  ....         .. .       ..... .      ...             ",
"   .                                                              .                                                                   ",
"   .. . . . . . . . . . . . . . . . . . . . . . . . . . . . . . . . . . . . . . . . . . . . . . . . . . . . . . . . . . . . . . .     ",
"   .                                                              .                                                                   ",
"   .                                                              .                                                                   ",
"   .                                                              .                                                                   ",
"   .                                    .                         .                                                                   ",
"   . ..           .                    . .       .                .                               .                                   ",
"   . ....        ..                   . . .     ..                .                               ....                                ",
"   . ......       .                  .   .       .                .                             ...   .                               ",
"   . ......       .                 .   .        .                .                           ..  .    ..                             ",
"   . ....         .                 .  .         .                .                         ..    .      ..                           ",
"   . ..           .                . ..          .                .                       ..      .        ..                         ",
"   .             ...               ..           ...               .                     ..        .          ..                       ",
"   .                              .                  .            .                   ..          .            ..                     ",
"   .                              ....................            .                  .            .              ..                   ",
"   .                                                              .                ..             .                ..                 ",
"   .                                                              .              ..               .                  .                ",
"   .                                                              .            ..                 .                   ..              ",
"   .   ........................................................   .          ..                   .                     ..            ",
"   .   .     .....   .....     .     .....   .....   .....    .   .        ..                     .                       ..          ",
"   .   .     .....   .....     .     .....   .....   .....    .   .      ..                       .                         ..        ",
"   .   .     .....   .....     .     .....   .....   .....    .   .    ..                         .                           ..      ",
"   .   .     .....   .....     .     .....   .....   .....    .   .  ..                           .                             ..    ",
"   .   .     .....   .....     .     .....   .....   .....    .   ...                             .                               .   ",
"   .   .     .....   .....     .     .....   .....   .....    .   .                               .                                   ",
"   .   .     .....   .....     .     .....   .....   .....    .   .               ...             .                                   ",
"   .   .     .....   .....     .     .....   .....   .....    .   .             ..   ..           .                                   ",
"   .   .     .....   .....     .     .....   .....   .....    .   .           ..       ..         .                                   ",
"   .   .     .....   .....     .     .....   .....   .....    .   .         ..           ..       .                                   ",
"   .   .     .....   .....     .     .....   .....   .....    .   .       ..               ..     .                                   ",
"   .   .     .....   .....     .     .....   .....   .....    .   .     ..                   ..   .                                   ",
"   .   .     .....   .....     .     .....   .....   .....    .   .   ..                       .. .                                   ",
"   .   .     .....   .....     .     .....   .....   .....    .   . ..                           ..                                   ",
"   .   .     .....   .....     .     .....   .....   .....    .   ..                              ...                                 ",
"   .   .       .       .       .       .       .       .      .   .                               .  ..                          ..   ",
"   .   .       .       .       .       .       .       .      .   .                               .    .                       ..     ",
"   .   .       .       .       .       .       .       .      .   .                               .     ..                   ..       ",
"   .   .       .       .       .       .       .       .      .   .                               .       ..               ..         ",
"   .   .       .       .       .       .       .       .      .   .                               .         ..           ..           ",
"   .   .       .       .       .       .       .       .      .   .                               .           ..       ..             ",
"   .   .       .       .       .       .       .       .      .   .                               .             ..   ..               ",
"   .   .       .       .       .       .       .       .      .   .                               .               ...                 ",
"   .   . ....  .       .       .       .       .       .      .   .                                                                   ",
"   .   . ....  .       .       .       .       .       .      .   .                                                                   ",
"   .   . ....  .       .       .       .       .       .      .   .                                                                   ",
"   .   . ....  .       .       .       .       .       .      .   .                                                                   ",
"   .   .       .       .       .       .       .       .      .   .................................................................   ",
"   .   .       .       .       .       .       .       .      .   .... ........... ...... ...   .. ... ............................   ",
"   .   .       .       .       .       .       .       .      .   ...  ..........  .....  .. ... . ... ............................   ",
"   .   ........................................................   .... ........... .... . ...... . ... .     ......................   ",
"   .                                                              .... ........... ... .. ..... ..     .... .......................   ",
"   .                                                              .... ........... ...     ... ... ... ... ........................   ",
"   .                                                              .... ....  ..... ...... ... .... ... .. .........................   ",
"   .                                                              ...   ...  ....   ..... ..     . ... .     ......................   ",
"   ................................................................................................................................   ",
"                                                                                                                                      ",
"                                                                                                                                      ",
"                                                                                                                                      "};
